<?xml version="1.0" standalone="no"?>
<!DOCTYPE svg PUBLIC "-//W3C//DTD SVG 20010904//EN"
 "http://www.w3.org/TR/2001/REC-SVG-20010904/DTD/svg10.dtd">
<svg version="1.0" xmlns="http://www.w3.org/2000/svg" viewBox="0 0 955.000000 955.000000"
 preserveAspectRatio="xMidYMid meet">

<g transform="translate(0.000000,955.000000) scale(0.100000,-0.100000)"
fill="red" stroke="none">
<path d="M4885 8080 c-253 -18 -509 -64 -815 -147 -216 -58 -715 -275 -963
-419 -88 -51 -322 -213 -417 -289 -282 -224 -499 -549 -461 -690 14 -53 63
-118 115 -154 53 -37 116 -55 296 -87 138 -25 170 -27 670 -34 799 -13 1052
-29 1200 -76 94 -29 140 -64 140 -103 0 -64 -59 -114 -425 -358 -233 -155
-287 -196 -393 -298 -99 -94 -131 -145 -139 -217 -26 -257 288 -420 990 -513
228 -31 248 -35 352 -85 88 -42 135 -83 168 -144 20 -38 22 -55 22 -221 0
-161 -2 -188 -23 -255 -48 -152 -116 -250 -247 -356 -147 -120 -257 -161 -481
-180 -112 -9 -110 -13 -117 183 -6 175 -20 242 -81 369 -44 92 -97 164 -173
235 -133 123 -254 182 -459 225 -110 24 -154 28 -299 28 -147 1 -182 -3 -260
-23 -133 -34 -339 -133 -456 -217 -65 -47 -223 -244 -297 -371 -83 -140 -142
-376 -142 -563 0 -130 35 -332 81 -471 73 -221 226 -477 377 -633 78 -80 258
-232 369 -313 173 -124 570 -287 887 -363 367 -88 981 -99 1338 -24 137 28
496 134 592 174 251 105 435 212 650 379 172 133 303 259 396 381 298 390 413
658 466 1090 22 178 15 480 -15 620 -55 265 -174 500 -370 733 -103 123 -206
212 -464 405 -74 56 -139 111 -142 122 -6 20 30 104 60 140 34 41 208 337 249
424 97 204 147 411 162 659 14 248 -45 492 -166 684 -22 35 -40 67 -40 71 0 4
-15 26 -33 49 -17 23 -45 61 -62 83 -76 105 -262 257 -399 327 -74 37 -259
101 -463 159 -187 52 -534 81 -778 64z m325 -170 c270 -13 339 -22 470 -59
293 -85 471 -180 654 -352 267 -249 389 -678 303 -1065 -71 -317 -123 -432
-371 -808 -95 -145 -98 -151 -94 -197 6 -61 24 -88 101 -149 201 -161 361
-291 426 -349 270 -240 445 -569 492 -926 26 -200 -5 -548 -67 -751 -46 -151
-200 -486 -271 -587 -122 -175 -371 -419 -549 -538 -561 -374 -1182 -543
-1844 -500 -357 23 -790 122 -1015 231 -314 152 -430 233 -651 454 -159 159
-247 285 -322 464 -90 212 -118 369 -109 597 9 218 59 368 182 551 127 186
327 329 550 390 74 21 442 20 532 -1 77 -18 215 -81 319 -146 170 -106 277
-315 290 -564 8 -154 -14 -163 -82 -34 -60 114 -171 181 -304 183 -65 1 -81
-3 -125 -28 -103 -59 -131 -100 -149 -215 -9 -61 -16 -78 -37 -93 -24 -18 -29
-18 -60 -5 -69 28 -157 162 -160 240 0 12 -6 40 -13 62 l-12 40 -37 -50 c-20
-27 -55 -97 -78 -155 -36 -91 -42 -115 -42 -181 0 -136 49 -237 188 -390 159
-174 154 -190 -72 -224 -57 -8 -121 -15 -143 -15 -22 0 -40 -4 -40 -9 0 -15
113 -120 195 -181 219 -162 490 -239 747 -211 116 12 380 69 475 102 71 24 95
24 118 -1 14 -16 17 -31 13 -83 -6 -71 -32 -129 -116 -255 -30 -45 -53 -84
-51 -86 8 -8 246 46 334 75 248 83 455 219 617 404 93 106 142 178 229 338 77
142 100 171 132 162 90 -27 147 -208 147 -467 0 -64 4 -108 9 -106 6 2 39 40
75 86 174 221 254 426 263 675 7 160 -6 240 -64 422 -51 158 -63 239 -40 270
32 42 254 13 402 -54 37 -17 76 -31 87 -31 22 0 16 10 -96 193 -138 224 -342
387 -701 562 -319 155 -375 169 -1330 345 -403 74 -515 107 -515 151 0 24 8
27 202 80 133 36 180 55 358 144 292 147 571 327 860 554 63 50 125 94 137 97
31 8 74 -16 96 -53 26 -46 40 -204 28 -323 -5 -52 -7 -97 -5 -99 12 -13 155
133 242 248 58 77 112 276 112 418 0 60 -7 103 -25 160 -28 90 -59 137 -179
283 -56 68 -86 112 -84 125 9 58 245 132 397 123 34 -1 61 -1 61 2 0 13 -150
152 -203 188 -95 66 -271 132 -390 147 -102 13 -354 -29 -549 -91 -120 -38
-214 -48 -240 -26 -12 9 -14 21 -8 45 21 89 90 187 216 306 l98 91 -60 0 c-79
0 -254 -32 -379 -69 -144 -43 -478 -180 -614 -253 -64 -34 -186 -97 -271 -141
-85 -43 -234 -120 -330 -170 -257 -134 -435 -218 -626 -293 -162 -65 -173 -68
-254 -68 -191 -1 -251 83 -164 231 79 136 196 262 379 410 173 139 321 236
516 339 582 307 1112 463 1604 473 39 0 167 -4 285 -9z m-344 -564 c7 -17 -8
-46 -58 -118 -42 -59 -92 -209 -83 -246 9 -37 41 -62 82 -62 20 0 138 27 262
59 124 33 253 65 286 72 80 17 223 15 311 -4 130 -28 320 -116 331 -153 4 -13
-38 -30 -153 -63 -88 -26 -134 -56 -158 -104 -32 -66 -9 -120 114 -261 110
-127 154 -239 154 -391 -1 -117 -22 -195 -87 -324 -81 -158 -105 -161 -117
-12 -15 173 -56 241 -153 249 -68 5 -115 -16 -217 -98 -279 -224 -657 -473
-860 -566 -286 -130 -429 -174 -570 -174 -73 0 -90 10 -90 52 0 67 76 129 553
455 163 111 323 241 354 286 77 114 40 262 -86 341 -171 108 -530 147 -1331
144 -217 -1 -405 2 -417 6 -13 4 -23 13 -23 20 0 12 127 79 222 117 75 29 270
128 363 184 132 78 732 381 850 428 61 25 178 67 260 95 83 27 166 57 185 66
44 19 69 20 76 2z m551 -2721 c144 -38 273 -89 458 -180 238 -118 414 -253
573 -438 62 -73 37 -82 -128 -46 -116 24 -168 19 -213 -21 -32 -28 -32 -29
-31 -122 1 -76 7 -109 33 -185 99 -289 95 -536 -14 -818 -34 -89 -83 -175 -99
-175 -8 0 -17 30 -25 84 -15 102 -59 233 -95 285 -62 90 -163 81 -237 -21 -17
-24 -74 -115 -126 -203 -53 -88 -120 -188 -150 -223 -63 -71 -199 -189 -291
-251 -99 -67 -297 -154 -400 -176 -48 -10 -50 11 -12 141 51 177 34 264 -52
264 -16 0 -99 -18 -185 -40 -299 -77 -537 -104 -683 -76 -129 24 -280 78 -352
126 -71 48 -108 79 -108 92 0 5 42 28 93 52 104 48 137 84 137 149 0 41 -14
60 -145 197 -58 61 -101 116 -120 155 -27 55 -29 69 -30 170 0 114 22 205 49
205 7 0 25 -26 41 -57 58 -119 138 -183 230 -183 70 0 100 33 109 125 15 149
87 225 210 225 87 -1 197 -77 250 -174 45 -82 59 -149 60 -288 0 -65 3 -118 6
-118 15 0 41 30 84 94 25 39 46 73 46 76 0 18 61 30 153 30 124 0 208 13 307
47 208 71 357 183 473 355 97 143 136 253 163 448 26 194 6 289 -91 418 -26
34 -44 66 -40 72 10 16 53 12 152 -15z"/>
</g>
</svg>
